<svg width="343" height="367" viewBox="0 0 343 367" fill="none" xmlns="http://www.w3.org/2000/svg">
<path d="M311.808 178.339H109.01L296.588 95.3053C299.183 94.0957 301.225 91.8372 302.269 89.0225C303.313 86.2079 303.275 83.0656 302.162 80.2812L278.259 18.522C277.168 15.7188 275.083 13.4926 272.461 12.3316C269.839 11.1707 266.894 11.1697 264.271 12.3289L27.1185 117.383C24.5045 118.571 22.4381 120.82 21.373 123.637C20.3078 126.454 20.3311 129.608 21.4375 132.407L44.5364 192.044V344.062C44.5364 347.104 45.6657 350.021 47.6759 352.172C49.686 354.323 52.4124 355.531 55.2552 355.531H311.969C314.812 355.531 317.538 354.323 319.549 352.172C321.559 350.021 322.688 347.104 322.688 344.062V189.808C322.688 188.287 322.406 186.782 321.857 185.379C321.308 183.976 320.504 182.704 319.492 181.637C318.48 180.569 317.279 179.728 315.96 179.162C314.641 178.596 313.23 178.316 311.808 178.339ZM93.146 112.967L146.74 136.765L112.815 151.789L59.2211 127.991L93.146 112.967ZM150.866 87.3919L204.46 111.19L174.769 124.321L121.176 100.581L150.866 87.3919ZM210.623 60.899L264.217 84.6967L232.49 98.8033L178.896 75.0056L210.623 60.899ZM84.8389 164.118L60.8825 174.726L50.9677 149.094L84.8389 164.118ZM272.417 63.4795L238.653 48.5128L262.609 37.9042L272.417 63.4795ZM301.09 332.594H65.8132V201.277H301.09V332.594Z" fill="url(#paint0_linear_4_5)"/>
<defs>
<linearGradient id="paint0_linear_4_5" x1="20.5264" y1="183.5" x2="322.527" y2="183.5" gradientUnits="userSpaceOnUse">
<stop stop-color="#17A6D7"/>
<stop offset="1" stop-color="#9D31FE"/>
</linearGradient>
</defs>
</svg>
